<svg xmlns="http://www.w3.org/2000/svg" width="33.579" height="22" viewBox="0 0 33.579 22">
  <g id="vietnam" transform="translate(0 -88.276)">
    <path id="Path_9" data-name="Path 9" d="M33,110.276H.579A.579.579,0,0,1,0,109.7V88.855a.579.579,0,0,1,.579-.579H33a.579.579,0,0,1,.579.579V109.7A.579.579,0,0,1,33,110.276Z" fill="#ff4b55"/>
    <path id="Path_10" data-name="Path 10" d="M156.6,153.2l1.548,4.643,4.894.038a.285.285,0,0,1,.167.514l-3.937,2.907,1.476,4.666a.285.285,0,0,1-.437.318l-3.982-2.846-3.982,2.846a.285.285,0,0,1-.437-.318l1.476-4.666-3.937-2.907a.285.285,0,0,1,.167-.514l4.894-.038,1.548-4.643A.285.285,0,0,1,156.6,153.2Z" transform="translate(-139.539 -60.481)" fill="#ffe15a"/>
  </g>
</svg>
